# xmcd
# 
# Track frame offsets:
#   150
#   19393
#   36024
#   51263
#   71450
#   86551
#   100938
#   115146
#   131058
#   146448
#   164069
#   179642
#   196446
#   214230
#   231652
#   247940
#   263182
# 
# Disc length: 3719 seconds
# 
# Revision: 0
# Processed by: cddbd v1.5.1PL2 Copyright (c) Steve Scherf et al.
# Submitted via: Synapstar 1.0 
# 
DISCID=040e8511
DTITLE=Alabama - Country classics - Alabama
DYEAR=1900
DGENRE=Country
TTITLE0=Mountain Music
TTITLE1=Tennessee River
TTITLE2=Love In The First Degree
TTITLE3=My Home's In Alabama
TTITLE4=Southern Star
TTITLE5=Here We Are
TTITLE6=I'm In Hurry (and don't know why)
TTITLE7=Song Of The South
TTITLE8=Forty Hour Week
TTITLE9=Fire In The Night
TTITLE10=Will You Marry Me
TTITLE11=Give Me One More shot
TTITLE12=Roll On Eighteen Wheeler
TTITLE13=Dixieland Delight
TTITLE14=Feel So Right
TTITLE15=Born Country
TTITLE16=God Must've Spent A little More Time On You
EXTD=MediaType: Karaoke CD+G Producer: Epic
EXTT0=
EXTT1=
EXTT2=
EXTT3=
EXTT4=
EXTT5=
EXTT6=
EXTT7=
EXTT8=
EXTT9=
EXTT10=
EXTT11=
EXTT12=
EXTT13=
EXTT14=
EXTT15=
EXTT16=
PLAYORDER=
